<svg xmlns="http://www.w3.org/2000/svg" width="19" height="19" viewBox="0 0 19 19" fill="none">
  <path d="M6.74135 12.7308C3.17393 12.7308 0.126953 13.3431 0.126953 15.7905C0.126953 18.2397 3.15455 18.8731 6.74135 18.8731C10.3088 18.8731 13.3558 18.2608 13.3558 15.8135C13.3558 13.3642 10.3282 12.7308 6.74135 12.7308Z" fill="black"/>
  <path opacity="0.4" d="M6.74138 10.3979C9.17103 10.3979 11.1181 8.27928 11.1181 5.63552C11.1181 2.99176 9.17103 0.873108 6.74138 0.873108C4.3126 0.873108 2.36465 2.99176 2.36465 5.63552C2.36465 8.27928 4.3126 10.3979 6.74138 10.3979Z" fill="black"/>
  <path opacity="0.4" d="M12.883 5.72184C12.883 7.06815 12.5114 8.3244 11.8597 9.36791C11.7919 9.47523 11.8518 9.61993 11.9698 9.64292C12.1336 9.67263 12.3018 9.69083 12.4735 9.69467C14.182 9.74354 15.7151 8.54671 16.1387 6.74427C16.7666 4.06985 14.9243 1.66852 12.5775 1.66852C12.323 1.66852 12.079 1.69727 11.8413 1.74997C11.8087 1.75763 11.7734 1.77488 11.7558 1.80555C11.7329 1.84483 11.7497 1.89562 11.7726 1.92916C12.4779 3.00525 12.883 4.31515 12.883 5.72184Z" fill="black"/>
  <path d="M17.9282 13.0424C17.6155 12.3171 16.8608 11.8197 15.7125 11.5754C15.1709 11.4317 13.7038 11.2276 12.3397 11.2563C12.3194 11.2592 12.308 11.2745 12.3062 11.2841C12.3036 11.2994 12.3097 11.3224 12.3362 11.3387C12.9667 11.6779 15.4034 13.1536 15.0969 16.2659C15.0837 16.402 15.1832 16.517 15.3074 16.4978C15.9071 16.4049 17.45 16.0436 17.9282 14.9206C18.1932 14.3265 18.1932 13.6366 17.9282 13.0424Z" fill="black"/>
</svg>