<svg xmlns="http://www.w3.org/2000/svg" width="19" height="19" viewBox="0 0 19 19" fill="none">
  <path opacity="0.4" d="M5.63561 16.0903C6.38203 16.0903 6.99355 16.7148 6.99355 17.4863C6.99355 18.2486 6.38203 18.8731 5.63561 18.8731C4.8802 18.8731 4.26868 18.2486 4.26868 17.4863C4.26868 16.7148 4.8802 16.0903 5.63561 16.0903ZM15.7527 16.0903C16.4991 16.0903 17.1107 16.7148 17.1107 17.4863C17.1107 18.2486 16.4991 18.8731 15.7527 18.8731C14.9973 18.8731 14.3858 18.2486 14.3858 17.4863C14.3858 16.7148 14.9973 16.0903 15.7527 16.0903Z" fill="black"/>
  <path d="M1.544 0.880759L3.68883 1.21139C3.99459 1.26741 4.21942 1.52365 4.2464 1.83592L4.41726 3.89318C4.44424 4.188 4.67806 4.40842 4.96584 4.40842H17.1109C17.6594 4.40842 18.0192 4.60129 18.3789 5.02376C18.7386 5.44623 18.8016 6.05239 18.7206 6.60253L17.8663 12.6274C17.7044 13.7855 16.7332 14.6387 15.5911 14.6387H5.7797C4.58363 14.6387 3.59441 13.7019 3.49548 12.4905L2.66813 2.47881L1.31019 2.24002C0.950466 2.17573 0.698663 1.81755 0.761614 1.45018C0.824564 1.07363 1.17529 0.825653 1.544 0.880759ZM14.1522 7.80566H11.6611C11.2834 7.80566 10.9866 8.10874 10.9866 8.49448C10.9866 8.87103 11.2834 9.18329 11.6611 9.18329H14.1522C14.5299 9.18329 14.8267 8.87103 14.8267 8.49448C14.8267 8.10874 14.5299 7.80566 14.1522 7.80566Z" fill="black"/>
</svg>